<svg aria-hidden="true" style="position: absolute; width: 0; height: 0; overflow: hidden;" version="1.1" xmlns="http://www.w3.org/2000/svg" xmlns:xlink="http://www.w3.org/1999/xlink">
<defs>
<symbol id="icon-money" viewBox="0 0 24 24">
<path d="M11.813 10.922q1.031 0.281 1.711 0.563t1.43 0.773 1.148 1.242 0.398 1.781q0 1.453-0.961 2.367t-2.555 1.195v2.156h-3v-2.156q-1.547-0.328-2.555-1.313t-1.102-2.531h2.203q0.188 2.109 2.953 2.109 1.453 0 2.086-0.539t0.633-1.242q0-1.688-3-2.438-4.688-1.078-4.688-4.125 0-1.359 0.984-2.32t2.484-1.289v-2.156h3v2.203q1.547 0.375 2.367 1.406t0.867 2.391h-2.203q-0.094-2.109-2.531-2.109-1.219 0-1.945 0.516t-0.727 1.359q0 1.359 3 2.156z"></path>
</symbol>

<symbol id="icon-price-tag" viewBox="0 0 20 20">
<path d="M19.388 0.405c-0.111-0.314-0.454-0.48-0.769-0.371s-0.481 0.455-0.372 0.77c0.929 2.67-0.915 4.664-2.321 5.732l-0.568-0.814c-0.191-0.273-0.618-0.5-0.95-0.504l-3.188 0.014c-0.332-0.006-0.825 0.146-1.097 0.338l-9.394 6.587c-0.455 0.32-0.565 0.947-0.247 1.404l4.269 6.108c0.32 0.455 0.831 0.4 1.287 0.082l9.394-6.588c0.27-0.191 0.582-0.603 0.692-0.918l0.998-3.145c0.11-0.314 0.043-0.793-0.148-1.066l-0.346-0.496c1.888-1.447 3.848-4.004 2.76-7.133zM15.017 9.763c-0.727 0.51-1.731 0.332-2.24-0.396-0.511-0.73-0.333-1.734 0.395-2.246 0.578-0.405 1.328-0.376 1.868 0.017-0.272 0.164-0.459 0.26-0.494 0.275-0.301 0.143-0.43 0.504-0.288 0.805 0.104 0.219 0.321 0.348 0.547 0.348 0.086 0 0.174-0.020 0.257-0.059 0.194-0.092 0.402-0.201 0.619-0.33 0.097 0.594-0.139 1.217-0.664 1.586z"></path>
</symbol>

<symbol id="icon-key-2" viewBox="0 0 32 32">
<path d="M31.317 9.82l-3.16-3.159c-0.775-0.775-2.043-2.043-2.818-2.818l-3.16-3.159c-0.775-0.775-2.155-0.911-3.067-0.304l-8.639 5.759c-0.912 0.608-1.257 1.907-0.767 2.887l2.203 4.405c0.067 0.135 0.145 0.278 0.231 0.427l-11.142 11.142-1 7h6v-2h4v-4h4v-4h4v-2.225c0.2 0.119 0.392 0.226 0.569 0.314l4.405 2.203c0.98 0.49 2.279 0.145 2.887-0.767l5.759-8.639c0.608-0.912 0.471-2.292-0.304-3.066zM4.707 26.707l-1.414-1.414 9.737-9.737 1.414 1.414-9.737 9.737zM28.657 13.243l-1.414 1.414c-0.389 0.389-1.025 0.389-1.414 0l-8.485-8.485c-0.389-0.389-0.389-1.025 0-1.414l1.414-1.414c0.389-0.389 1.025-0.389 1.414 0l8.485 8.485c0.389 0.389 0.389 1.025 0 1.414z"></path>
</symbol>

<symbol id="icon-secure" viewBox="0 0 32 32">
<path d="M7 23h19v-5.994c0-1.108-0.891-2.006-1.997-2.006h-15.005c-1.103 0-1.997 0.897-1.997 2.006v5.994zM7 24v2h0.75l1.5-2h-2.25zM7 27c0.003 1.105 0.893 2 1.997 2h15.005c1.101 0 1.994-0.894 1.997-2h-19zM26 26v-2h-0.75l-1.5 2h2.25zM9 14v-3.501c0-4.143 3.358-7.499 7.5-7.499 4.134 0 7.5 3.358 7.5 7.499v3.501c1.659 0.005 3 1.35 3 3.009v9.981c0 1.673-1.347 3.009-3.009 3.009h-14.982c-1.663 0-3.009-1.347-3.009-3.009v-9.981c0-1.67 1.342-3.005 3-3.009v0 0zM8.75 26h2l1.5-2h-2l-1.5 2zM11.75 26h2l1.5-2h-2l-1.5 2zM14.75 26h2l1.5-2h-2l-1.5 2zM17.75 26h2l1.5-2h-2l-1.5 2zM20.75 26h2l1.5-2h-2l-1.5 2zM10 14h1v-3.491c0-3.048 2.462-5.509 5.5-5.509 3.031 0 5.5 2.466 5.5 5.509v3.491h1v-3.507c0-3.586-2.917-6.493-6.5-6.493-3.59 0-6.5 2.908-6.5 6.493v3.507zM12 14h9v-3.499c0-2.486-2.020-4.501-4.5-4.501-2.485 0-4.5 2.009-4.5 4.501v3.499z"></path>
</symbol>

<symbol id="icon-key" viewBox="0 0 32 32">
<path d="M17.837 17.542l-10.049 10.049c-0.778 0.778-2.043 0.776-2.824-0.005s-0.783-2.045-0.005-2.823l0.764-0.764-2.165-2.166c-0.391-0.39-0.392-1.022-0.003-1.412 0.39-0.39 1.021-0.388 1.412 0.003l2.166 2.166 0.705-0.705-0.752-0.752c-0.391-0.391-0.392-1.022-0.002-1.412 0.389-0.389 1.021-0.389 1.412 0.002l0.751 0.752 0.705-0.705-2.166-2.166c-0.391-0.391-0.392-1.021-0.002-1.411 0.389-0.39 1.021-0.389 1.412 0.002l2.165 2.166 3.649-3.649c-2.365-3.295-2.659-7.228-0.48-9.406 2.53-2.53 7.431-1.732 10.945 1.783s4.313 8.415 1.782 10.945c-2.181 2.181-6.122 1.882-9.42-0.492zM23.349 9.202c-1.562-1.562-3.618-2.040-4.591-1.066s-0.496 3.028 1.066 4.591c1.562 1.562 3.617 2.039 4.591 1.066s0.495-3.029-1.066-4.591z"></path>
</symbol>

<symbol id="icon-room" viewBox="0 0 24 24">
<path d="M9.984 11.016v1.969h2.016v-1.969h-2.016zM14.016 6v15h-11.016v-2.016h2.016v-15.984h9v0.984h4.969v15h2.016v2.016h-3.984v-15h-3z"></path>
</symbol>

<symbol id="icon-sector" viewBox="0 0 32 32">
<path d="M23.977 28.965v-1.932h3.988v-3.988h2.057v5.92h-6.045zM27.965 5.967h-3.988v-1.932h6.045v5.92h-2.057v-3.988zM3.035 9.955h-2.056v-5.92h6.045v1.932h-3.989v3.988zM4.967 8.023h21.066v16.953h-21.066v-16.953zM7.023 23.045h16.953v-13.090h-16.953v13.090zM9.018 12.012h13.027v8.977h-13.027v-8.977zM3.035 27.033h3.988v1.932h-6.044v-5.92h2.057v3.988z"></path>
</symbol>

<symbol id="icon-area" viewBox="0 0 24 24">
<path d="M6.984 3v2.016h-1.969v-2.016h1.969zM11.016 3v2.016h-2.016v-2.016h2.016zM3 11.016v1.969h-2.016v-1.969h2.016zM3 3v2.016h-2.016q0-0.75 0.633-1.383t1.383-0.633zM18.984 18.984v2.016h-1.969v-2.016h1.969zM18.984 3v2.016h-1.969v-2.016h1.969zM15 18.984v2.016h-2.016v-2.016h2.016zM3 6.984v2.016h-2.016v-2.016h2.016zM3 21q-0.797 0-1.406-0.609t-0.609-1.406v-3.984h10.031v6h-8.016zM21 3q0.75 0 1.383 0.633t0.633 1.383h-2.016v-2.016zM23.016 6.984v2.016h-2.016v-2.016h2.016zM15 3v2.016h-2.016v-2.016h2.016zM23.016 18.984q0 0.75-0.633 1.383t-1.383 0.633v-2.016h2.016zM23.016 11.016v1.969h-2.016v-1.969h2.016zM23.016 15v2.016h-2.016v-2.016h2.016z"></path>
</symbol>

<symbol id="icon-map-pin" viewBox="0 0 20 32">
<path d="M17.070 2.93c-3.906-3.906-10.234-3.906-14.141 0-3.906 3.904-3.906 10.238 0 14.14 0.001 0 7.071 6.93 7.071 14.93 0-8 7.070-14.93 7.070-14.93 3.907-3.902 3.907-10.236 0-14.14zM10 14c-2.211 0-4-1.789-4-4s1.789-4 4-4 4 1.789 4 4-1.789 4-4 4z"></path>
</symbol>

<symbol id="icon-location" viewBox="0 0 32 32">
<path d="M16 0c-5.523 0-10 4.477-10 10 0 10 10 22 10 22s10-12 10-22c0-5.523-4.477-10-10-10zM16 16.125c-3.383 0-6.125-2.742-6.125-6.125s2.742-6.125 6.125-6.125 6.125 2.742 6.125 6.125-2.742 6.125-6.125 6.125zM12.125 10c0-2.14 1.735-3.875 3.875-3.875s3.875 1.735 3.875 3.875c0 2.14-1.735 3.875-3.875 3.875s-3.875-1.735-3.875-3.875z"></path>
</symbol>

<symbol id="icon-grid" viewBox="0 0 16 16">
<path d="M15 16h-14c-0.553 0-1-0.447-1-1v-14c0-0.553 0.447-1 1-1h14c0.553 0 1 0.447 1 1v14c0 0.553-0.447 1-1 1zM14 2h-12v12h12v-12zM7 7h-3v-3h3v3zM7 12h-3v-3h3v3zM12 7h-3v-3h3v3zM12 12h-3v-3h3v3z"></path>
</symbol>

<symbol id="icon-heart" viewBox="0 0 32 32">
<path d="M23.6 2c-3.363 0-6.258 2.736-7.599 5.594-1.342-2.858-4.237-5.594-7.601-5.594-4.637 0-8.4 3.764-8.4 8.401 0 9.433 9.516 11.906 16.001 21.232 6.13-9.268 15.999-12.1 15.999-21.232 0-4.637-3.763-8.401-8.4-8.401z"></path>
</symbol>

<symbol id="icon-lock" viewBox="0 0 28 32">
<path d="M14 0c-5.514 0-10 4.486-10 10v3h-1.5c-1.378 0-2.5 1.122-2.5 2.5v14c0 1.378 1.122 2.5 2.5 2.5h23c1.378 0 2.5-1.122 2.5-2.5v-14c0-1.378-1.122-2.5-2.5-2.5h-1.5v-3c0-5.514-4.486-10-10-10zM5 10c0-4.962 4.038-9 9-9s9 4.038 9 9v3h-3v-3c0-3.309-2.691-6-6-6s-6 2.691-6 6v3h-3v-3zM19 13h-10v-3c0-2.757 2.243-5 5-5s5 2.243 5 5v3zM12.293 21l-5 5h-4.586l5-5h4.586zM18.293 21l-5 5h-4.586l5-5h4.586zM24.293 21l-5 5h-4.586l5-5h4.586zM27 21v5h-6.293l5-5h1.293zM1.293 26h-0.293v-5h5.293l-5 5zM25.5 31h-23c-0.827 0-1.5-0.673-1.5-1.5v-2.5h26v2.5c0 0.827-0.673 1.5-1.5 1.5zM27 15.5v4.5h-26v-4.5c0-0.827 0.673-1.5 1.5-1.5h23c0.827 0 1.5 0.673 1.5 1.5z"></path>
</symbol>

<symbol id="icon-time" viewBox="0 0 32 32">
<path d="M28.054 18.571c0 6.933-5.62 12.554-12.554 12.554s-12.554-5.621-12.554-12.554c0-6.722 5.286-12.192 11.927-12.521v-2.166h-0.941c-0.555 0-1.005-0.45-1.005-1.005s0.45-1.004 1.005-1.004h3.012c0.555 0 1.005 0.449 1.005 1.004s-0.45 1.005-1.005 1.005h-1.066v2.153c6.757 0.2 12.176 5.729 12.176 12.534zM14.873 9.909v-2.291c-3.109 0.176-5.866 1.64-7.766 3.858l1.653 1.653-0.71 0.711-1.565-1.566c-1.274 1.798-2.032 3.987-2.032 6.359 0 0.106 0.015 0.251 0.015 0.251h2.432v1.005h-2.36c0.244 2.052 1.057 3.987 2.268 5.534l1.243-1.243 0.71 0.71-1.296 1.297c1.879 1.996 4.488 3.297 7.408 3.462v-2.729h1.004v2.742c2.989-0.102 5.67-1.393 7.599-3.41l-1.424-1.424 0.71-0.71 1.377 1.376c1.24-1.56 2.074-3.521 2.322-5.604h-2.55v-1.005h2.621c0.003-0.104 0.016-0.145 0.016-0.251 0-2.438-0.8-4.681-2.138-6.505l-1.648 1.648-0.71-0.71 1.726-1.725c-1.947-2.203-4.753-3.631-7.9-3.737v2.304h-1.005zM15.939 18.885h3.516c0.277 0 0.502 0.226 0.502 0.502 0 0.277-0.225 0.503-0.502 0.503h-4.018c-0.277 0-0.502-0.226-0.502-0.503v-6.967c0-0.277 0.225-0.502 0.502-0.502s0.502 0.225 0.502 0.502v6.465z"></path>
</symbol>

<symbol id="icon-sale" viewBox="0 0 32 32">
<path d="M28 31h-24c-1.657 0-3-1.344-3-3v-14c0-1.657 1.343-3 3-3h2l8.493-6.518c-0.038-0.155-0.064-0.315-0.064-0.482 0-1.104 0.896-2 2-2s1.999 0.896 1.999 2c0 0.359-0.102 0.692-0.269 0.984l7.841 6.016h2c1.656 0 3 1.343 3 3v14c0 1.656-1.344 3-3 3zM17.071 24.583h4.031v-0.758h-3.18v-5.688h-0.852v6.446zM11.303 24.583l0.706-1.953h2.708l0.742 1.953h0.972l-2.628-6.445h-0.924l-2.478 6.445h0.902zM5.342 18.894c-0.184 0.284-0.276 0.589-0.276 0.914 0 0.297 0.075 0.564 0.226 0.804s0.38 0.439 0.687 0.602c0.236 0.126 0.649 0.26 1.239 0.402s0.971 0.247 1.144 0.314c0.269 0.104 0.462 0.229 0.581 0.38s0.179 0.326 0.179 0.528c0 0.198-0.061 0.383-0.182 0.552s-0.306 0.302-0.555 0.399c-0.248 0.098-0.534 0.146-0.858 0.146-0.365 0-0.693-0.063-0.985-0.192-0.293-0.127-0.508-0.295-0.646-0.503s-0.228-0.474-0.266-0.797l-0.805 0.070c0.012 0.431 0.13 0.816 0.354 1.157s0.532 0.598 0.925 0.768c0.394 0.17 0.881 0.255 1.463 0.255 0.458 0 0.871-0.084 1.238-0.253 0.367-0.168 0.648-0.402 0.844-0.706s0.294-0.625 0.294-0.968c0-0.345-0.090-0.649-0.269-0.914s-0.456-0.484-0.832-0.656c-0.259-0.117-0.733-0.254-1.423-0.41-0.691-0.157-1.118-0.311-1.281-0.461-0.167-0.148-0.25-0.339-0.25-0.57 0-0.268 0.118-0.495 0.353-0.684s0.609-0.284 1.123-0.284c0.494 0 0.867 0.104 1.119 0.31 0.253 0.207 0.4 0.513 0.444 0.917l0.82-0.062c-0.015-0.378-0.12-0.716-0.315-1.014s-0.476-0.524-0.84-0.678-0.784-0.23-1.261-0.23c-0.433 0-0.826 0.073-1.18 0.22-0.356 0.146-0.625 0.36-0.809 0.644zM17.678 5.55c-0.344 0.277-0.774 0.45-1.249 0.45-0.662 0-1.244-0.325-1.608-0.821l-7.821 5.821h18l-7.322-5.45zM26.936 23.825h-3.953v-2.195h3.562v-0.758h-3.562v-1.977h3.805v-0.758h-4.656v6.445h4.805v-0.757zM13.314 18.81c0.104 0.353 0.256 0.8 0.457 1.343l0.679 1.782h-2.199l0.715-1.887c0.147-0.407 0.263-0.82 0.348-1.238z"></path>
</symbol>

<symbol id="icon-stats" viewBox="0 0 32 32">
<path d="M5.998 5h-0.987v23h20v-0.963l-18.996-0.049-0.017-21.988zM8.011 25h5v-10.875l-5 5v5.875zM14.011 25h5v-9.875l-2 2-3-3v10.875zM20.011 25h5v-15.187l-5 5v10.187zM13.387 11.067l3.62 3.6 7.148-7.112 1.834 1.844-0.044-4.399-4.415 0.023 1.717 1.722-6.242 6.26-3.689-3.703-5.623 5.604 0.939 0.912 4.755-4.751z"></path>
</symbol>

<symbol id="icon-global" viewBox="0 0 32 32">
<path d="M15.5 2c-8.008 0-14.5 6.492-14.5 14.5s6.492 14.5 14.5 14.5 14.5-6.492 14.5-14.5-6.492-14.5-14.5-14.5zM10.752 3.854c-0.714 1.289-1.559 3.295-2.113 6.131h-4.983c1.551-2.799 4.062-4.993 7.096-6.131zM3.154 10.987h5.316c-0.234 1.468-0.391 3.128-0.415 5.012h-6.060c0.067-1.781 0.468-3.474 1.159-5.012zM1.988 17.001h6.072c0.023 1.893 0.188 3.541 0.422 5.012h-5.29c-0.694-1.543-1.138-3.224-1.204-5.012zM3.67 23.015h4.977c0.559 2.864 1.416 4.867 2.134 6.142-3.046-1.134-5.557-3.336-7.111-6.142zM15.062 30.009c-1.052-0.033-2.067-0.199-3.045-0.46-0.755-1.236-1.736-3.363-2.356-6.534h5.401v6.994zM15.062 22.013h-5.578c-0.234-1.469-0.396-3.119-0.421-5.012h5.998v5.012zM15.062 15.999h-6.004c0.025-1.886 0.183-3.543 0.417-5.012h5.587v5.012zM15.062 9.985h-5.422c0.615-3.148 1.591-5.266 2.344-6.525 0.987-0.266 2.015-0.435 3.078-0.47v6.995zM29.003 15.999h-5.933c-0.025-1.884-0.182-3.544-0.416-5.012h5.172c0.693 1.541 1.108 3.23 1.177 5.012zM27.322 9.985h-4.837c-0.549-2.806-1.382-4.8-2.091-6.090 2.967 1.154 5.402 3.335 6.928 6.090zM16.063 2.989c1.067 0.047 2.102 0.216 3.092 0.493 0.751 1.263 1.72 3.372 2.331 6.503h-5.423v-6.996zM16.063 10.987h5.587c0.234 1.469 0.392 3.126 0.417 5.012h-6.004v-5.012zM16.063 17.001h5.998c-0.023 1.893-0.187 3.543-0.421 5.012h-5.577v-5.012zM16.063 29.991v-6.977h5.402c-0.617 3.152-1.591 5.271-2.343 6.512-0.978 0.272-2.005 0.418-3.059 0.465zM20.367 29.114c0.714-1.276 1.56-3.266 2.112-6.1h4.835c-1.522 2.766-3.967 4.95-6.947 6.1zM27.795 22.013h-5.152c0.234-1.471 0.398-3.119 0.423-5.012h5.927c-0.067 1.787-0.508 3.468-1.198 5.012z"></path>
</symbol>

<symbol id="icon-trophy" viewBox="0 0 32 32">
<path d="M26 6v-4h-20v4h-6v4c0 3.314 2.686 6 6 6 0.627 0 1.232-0.096 1.801-0.275 1.443 2.063 3.644 3.556 6.199 4.075v6.2h-2c-2.209 0-4 1.791-4 4h16c0-2.209-1.791-4-4-4h-2v-6.2c2.555-0.519 4.756-2.012 6.199-4.075 0.568 0.179 1.173 0.275 1.801 0.275 3.314 0 6-2.686 6-6v-4h-6zM6 13.625c-1.999 0-3.625-1.626-3.625-3.625v-2h3.625v2c0 1.256 0.232 2.457 0.655 3.565-0.213 0.039-0.431 0.060-0.655 0.060zM29.625 10c0 1.999-1.626 3.625-3.625 3.625-0.224 0-0.442-0.021-0.655-0.060 0.423-1.107 0.655-2.309 0.655-3.565v-2h3.625v2z"></path>
</symbol>

<symbol id="icon-cup" viewBox="0 0 20 20">
<path d="M11.18 14.356c0-1.451 1.1-2.254 2.894-3.442 2.194-1.456 4.926-3.265 4.926-7.56 0-0.387-0.317-0.699-0.709-0.699h-3.43c-0.484-0.896-1.929-1.855-4.861-1.855-2.934 0-4.377 0.959-4.862 1.855h-3.431c-0.391 0-0.707 0.313-0.707 0.699 0 4.295 2.73 6.104 4.926 7.559 1.794 1.188 2.894 1.991 2.894 3.442v1.311c-1.884 0.209-3.269 0.906-3.269 1.736 0 0.994 1.992 1.799 4.449 1.799s4.449-0.805 4.449-1.799c0-0.83-1.385-1.527-3.269-1.736v-1.31zM13.957 9.3c0.566-1.199 1.016-2.826 1.088-5.246h2.51c-0.24 2.701-1.862 4.064-3.598 5.246zM10 2.026c2.732-0.002 3.799 1.115 3.798 1.529 0 0.418-1.066 1.533-3.798 1.535-2.732-0.001-3.799-1.116-3.799-1.534-0.001-0.414 1.067-1.532 3.799-1.53zM2.445 4.054h2.509c0.073 2.42 0.521 4.047 1.089 5.246-1.736-1.182-3.359-2.545-3.598-5.246z"></path>
</symbol>

<symbol id="icon-home" viewBox="0 0 34 32">
<path d="M32 30v-2h-2v-12h2v-2h-6v2h2v12h-6v-12h2v-2h-6v2h2v12h-6v-12h2v-2h-6v2h2v12h-6v-12h2v-2h-6v2h2v12h-2v2h-2v2h34v-2h-2z"></path>
<path d="M16 0h2l16 10v2h-34v-2l16-10z"></path>
</symbol>

<symbol id="icon-person" viewBox="0 0 32 32">
<path d="M10 7c0-3.314 2.686-6 6-6s6 2.686 6 6c0 3.314-2.686 6-6 6s-6-2.686-6-6zM24.002 15h-1.107l-6.222 12.633 2.327-11.633-3-3-3 3 2.327 11.633-6.222-12.633h-1.107c-3.998 0-3.998 2.687-3.998 6v10h24v-10c0-3.313 0-6-3.998-6z"></path>
</symbol>

<symbol id="icon-info" viewBox="0 0 32 32">
<path d="M14 9.5c0-0.825 0.675-1.5 1.5-1.5h1c0.825 0 1.5 0.675 1.5 1.5v1c0 0.825-0.675 1.5-1.5 1.5h-1c-0.825 0-1.5-0.675-1.5-1.5v-1z"></path>
<path d="M20 24h-8v-2h2v-6h-2v-2h6v8h2z"></path>
<path d="M16 0c-8.837 0-16 7.163-16 16s7.163 16 16 16 16-7.163 16-16-7.163-16-16-16zM16 29c-7.18 0-13-5.82-13-13s5.82-13 13-13 13 5.82 13 13-5.82 13-13 13z"></path>
</symbol>

<symbol id="icon-google-plus" viewBox="0 0 32 32">
<path d="M10.181 14.294v3.494h5.775c-0.231 1.5-1.744 4.394-5.775 4.394-3.475 0-6.313-2.881-6.313-6.431s2.838-6.431 6.313-6.431c1.981 0 3.3 0.844 4.056 1.569l2.762-2.662c-1.775-1.656-4.075-2.662-6.819-2.662-5.631 0.006-10.181 4.556-10.181 10.188s4.55 10.181 10.181 10.181c5.875 0 9.775-4.131 9.775-9.95 0-0.669-0.075-1.181-0.163-1.688h-9.613z"></path>
<path d="M32 14h-3v-3h-3v3h-3v3h3v3h3v-3h3z"></path>
</symbol>

<symbol id="icon-facebook" viewBox="0 0 32 32">
<path d="M19 6h5v-6h-5c-3.86 0-7 3.14-7 7v3h-4v6h4v16h6v-16h5l1-6h-6v-3c0-0.542 0.458-1 1-1z"></path>
</symbol>

<symbol id="icon-twitter" viewBox="0 0 32 32">
<path d="M32 7.075c-1.175 0.525-2.444 0.875-3.769 1.031 1.356-0.813 2.394-2.1 2.887-3.631-1.269 0.75-2.675 1.3-4.169 1.594-1.2-1.275-2.906-2.069-4.794-2.069-3.625 0-6.563 2.938-6.563 6.563 0 0.512 0.056 1.012 0.169 1.494-5.456-0.275-10.294-2.888-13.531-6.862-0.563 0.969-0.887 2.1-0.887 3.3 0 2.275 1.156 4.287 2.919 5.463-1.075-0.031-2.087-0.331-2.975-0.819 0 0.025 0 0.056 0 0.081 0 3.181 2.263 5.838 5.269 6.437-0.55 0.15-1.131 0.231-1.731 0.231-0.425 0-0.831-0.044-1.237-0.119 0.838 2.606 3.263 4.506 6.131 4.563-2.25 1.762-5.075 2.813-8.156 2.813-0.531 0-1.050-0.031-1.569-0.094 2.913 1.869 6.362 2.95 10.069 2.95 12.075 0 18.681-10.006 18.681-18.681 0-0.287-0.006-0.569-0.019-0.85 1.281-0.919 2.394-2.075 3.275-3.394z"></path>
</symbol>

<symbol id="icon-instagram" viewBox="0 0 24 28">
<path d="M16 14c0-2.203-1.797-4-4-4s-4 1.797-4 4 1.797 4 4 4 4-1.797 4-4zM18.156 14c0 3.406-2.75 6.156-6.156 6.156s-6.156-2.75-6.156-6.156 2.75-6.156 6.156-6.156 6.156 2.75 6.156 6.156zM19.844 7.594c0 0.797-0.641 1.437-1.437 1.437s-1.437-0.641-1.437-1.437 0.641-1.437 1.437-1.437 1.437 0.641 1.437 1.437zM12 4.156c-1.75 0-5.5-0.141-7.078 0.484-0.547 0.219-0.953 0.484-1.375 0.906s-0.688 0.828-0.906 1.375c-0.625 1.578-0.484 5.328-0.484 7.078s-0.141 5.5 0.484 7.078c0.219 0.547 0.484 0.953 0.906 1.375s0.828 0.688 1.375 0.906c1.578 0.625 5.328 0.484 7.078 0.484s5.5 0.141 7.078-0.484c0.547-0.219 0.953-0.484 1.375-0.906s0.688-0.828 0.906-1.375c0.625-1.578 0.484-5.328 0.484-7.078s0.141-5.5-0.484-7.078c-0.219-0.547-0.484-0.953-0.906-1.375s-0.828-0.688-1.375-0.906c-1.578-0.625-5.328-0.484-7.078-0.484zM24 14c0 1.656 0.016 3.297-0.078 4.953-0.094 1.922-0.531 3.625-1.937 5.031s-3.109 1.844-5.031 1.937c-1.656 0.094-3.297 0.078-4.953 0.078s-3.297 0.016-4.953-0.078c-1.922-0.094-3.625-0.531-5.031-1.937s-1.844-3.109-1.937-5.031c-0.094-1.656-0.078-3.297-0.078-4.953s-0.016-3.297 0.078-4.953c0.094-1.922 0.531-3.625 1.937-5.031s3.109-1.844 5.031-1.937c1.656-0.094 3.297-0.078 4.953-0.078s3.297-0.016 4.953 0.078c1.922 0.094 3.625 0.531 5.031 1.937s1.844 3.109 1.937 5.031c0.094 1.656 0.078 3.297 0.078 4.953z"></path>
</symbol>
</defs>
</svg>
